<svg xmlns="http://www.w3.org/2000/svg" width="24" height="23" viewBox="0 0 24 23"><g><g><path fill="#fff" d="M22.456 10.372v.935a10.903 10.903 0 0 1-3.22 7.76 10.905 10.905 0 0 1-7.758 3.213h-.006a10.907 10.907 0 0 1-7.761-3.22A10.904 10.904 0 0 1 .5 11.295a10.908 10.908 0 0 1 3.22-7.76A10.907 10.907 0 0 1 11.478.322h.006c1.548 0 3.049.32 4.462.95a.928.928 0 0 1-.755 1.695 9.071 9.071 0 0 0-3.708-.79h-.005a9.064 9.064 0 0 0-6.447 2.668 9.064 9.064 0 0 0-2.676 6.45c-.003 5.03 4.087 9.126 9.118 9.13h.005a9.064 9.064 0 0 0 6.447-2.67 9.066 9.066 0 0 0 2.676-6.45v-.934a.928.928 0 0 1 1.855 0zm.734-7.454L12.134 13.973a.925.925 0 0 1-1.312 0l-3.015-3.015A.927.927 0 1 1 9.12 9.647l2.36 2.358L21.877 1.606a.927.927 0 1 1 1.312 1.312z"/></g></g></svg>