<svg xmlns="http://www.w3.org/2000/svg" width="21" height="24" viewBox="0 0 21 24"><g><g><path fill="#649f36" d="M19.604 18.154c.427.56.612 1.183.539 1.804-.073.615-.394 1.178-.932 1.634-.234.198-.471.385-.703.563-.339.264-.662.513-.95.792-.005.012-.016.017-.021.025-.83.73-1.814 1.023-2.926.882-.096-.012-.202-.032-.302-.048-1.64-.319-3.042-1.15-4.085-1.833-2.727-1.82-5.021-4.2-6.821-7.076C1.92 12.511.995 10.348.473 8.07.26 7.14.007 5.733.295 4.291a3.682 3.682 0 0 1 1.32-2.184L3.455.605l.011-.01c.539-.417 1.137-.6 1.725-.525.587.075 1.116.4 1.526.94.278.338.543.694.796 1.042.126.18.26.358.392.53l1.153 1.53c.887 1.17.726 2.526-.41 3.445-.15.122-.302.251-.454.374-.401.33-.813.672-1.252.993.214.71.54 1.428 1.048 2.288 1.055 1.739 2.206 3.126 3.52 4.24.13.113.283.216.446.33.112.077.23.16.347.246l1.708-1.375c.547-.447 1.146-.633 1.738-.562.598.076 1.13.419 1.537.98zm-1.036.824l-2.328-3.087c-.005-.001-.005-.001-.009-.007-.13-.19-.352-.415-.65-.457-.304-.031-.588.138-.772.286l-1.85 1.495c-.091.074-.372.305-.772.253a1.025 1.025 0 0 1-.462-.188c-.018-.009-.036-.029-.054-.04a5.455 5.455 0 0 0-.445-.323 7.526 7.526 0 0 1-.553-.41c-1.426-1.208-2.67-2.707-3.799-4.575l-.004-.005c-.618-1.054-1.004-1.921-1.244-2.822l-.01-.047c-.053-.294-.08-.725.385-1.104.006-.01.017-.012.027-.017.466-.336.898-.69 1.354-1.063.156-.12.308-.25.465-.38.573-.46.63-.95.183-1.543L6.876 3.421c-.134-.186-.27-.366-.4-.545a21.85 21.85 0 0 0-.76-.999c-.005-.012-.01-.013-.013-.02-.136-.18-.359-.402-.662-.44-.246-.029-.511.06-.774.263L2.423 3.168c-.45.364-.723.821-.84 1.399-.181.904-.132 1.887.169 3.19.486 2.126 1.36 4.159 2.758 6.418 1.698 2.707 3.861 4.952 6.426 6.662.938.622 2.199 1.367 3.618 1.645.071.013.149.022.22.033.752.093 1.355-.084 1.906-.565.341-.326.698-.606 1.048-.877.232-.181.447-.35.66-.533-.006.004-.006 0 0 0 .553-.466.615-.989.18-1.562z"/></g></g></svg>