<svg xmlns="http://www.w3.org/2000/svg" width="19" height="23" viewBox="0 0 19 23">
  <path d="M9.42 12.394h.15a4.235 4.235 0 0 0 3.26-1.453c1.77-2.07 1.48-5.613 1.45-5.951A4.883 4.883 0 0 0 12.03.672a5.009 5.009 0 0 0-2.48-.674h-.08a5.062 5.062 0 0 0-2.49.653A4.906 4.906 0 0 0 4.71 4.99c-.03.338-.32 3.881 1.46 5.951a4.184 4.184 0 0 0 3.25 1.453zM5.95 5.109V5.07c.16-3.411 2.51-3.779 3.52-3.779h.05c1.25.027 3.37.551 3.51 3.779a.053.053 0 0 0 .01.039c0 .035.33 3.274-1.14 4.976a2.994 2.994 0 0 1-2.38 1.022h-.05a2.98 2.98 0 0 1-2.38-1.022C5.63 8.39 5.94 5.137 5.95 5.109zm13.04 13.162v-.135c-.03-.943-.09-3.147-2.1-3.854a.207.207 0 0 1-.04-.013 13.219 13.219 0 0 1-3.84-1.8.614.614 0 0 0-.87.156.653.653 0 0 0 .15.894 14.226 14.226 0 0 0 4.22 1.986c1.08.4 1.2 1.584 1.23 2.67a.479.479 0 0 0 .01.12 9.886 9.886 0 0 1-.1 1.469 17.969 17.969 0 0 1-16.3 0 8.742 8.742 0 0 1-.1-1.471c0-.037.01-.073.01-.12.03-1.083.15-2.269 1.23-2.665a14.39 14.39 0 0 0 4.22-1.989.65.65 0 0 0 .15-.891.607.607 0 0 0-.87-.158 13.108 13.108 0 0 1-3.84 1.8l-.04.012C.1 14.993.04 17.197.01 18.137v.135a7.46 7.46 0 0 0 .23 2.156.594.594 0 0 0 .25.3 19 19 0 0 0 18.04 0 .692.692 0 0 0 .24-.3 7.714 7.714 0 0 0 .22-2.157z" fill="#fb9925" fill-rule="evenodd"/>
</svg>
