<svg xmlns="http://www.w3.org/2000/svg" width="50" height="42" viewBox="0 0 50 42"><g><g><path fill="#f1a583" d="M50 10.93c0 2.075-1.712 3.756-3.823 3.756-.233 0-.458-.028-.679-.066l-3.625 17.297H8.127L4.502 14.62a3.98 3.98 0 0 1-.679.066C1.712 14.686 0 13.005 0 10.931c0-2.075 1.712-3.756 3.823-3.756 2.112 0 3.824 1.681 3.824 3.756a3.706 3.706 0 0 1-1.083 2.61l7.847 7.474 8.14-12.687c-1.288-.802-2.15-2.204-2.15-3.811C20.402 2.022 22.462 0 25 0c2.54 0 4.598 2.021 4.598 4.516 0 1.61-.864 3.013-2.155 3.814l8.142 12.684 7.85-7.474a3.708 3.708 0 0 1-1.082-2.61c0-2.075 1.712-3.756 3.823-3.756C48.288 7.175 50 8.856 50 10.93zM43.426 42H6.571l1.985-8.036h32.885z"/></g></g></svg>