<svg xmlns="http://www.w3.org/2000/svg" width="75" height="64" viewBox="0 0 75 64"><g><g><path fill="#e7e7e7" d="M49.368 59.057a4.478 4.478 0 0 1-4.473 4.472h-15.14c-3.14 0-6.093-1.385-8.101-3.798l-3.621-4.352a7.615 7.615 0 0 0-5.828-2.752 3.598 3.598 0 0 1-3.332 2.251H7.367a1.45 1.45 0 0 1 0-2.899h1.506a.695.695 0 0 0 .694-.693V39.667a.695.695 0 0 0-.694-.694H3.499v9.15a1.449 1.449 0 0 1-2.899 0v-10.6c0-.8.649-1.448 1.45-1.448h6.823a3.6 3.6 0 0 1 3.311 2.198h5.619c3.387 0 6.594 1.296 9.03 3.649l7.816 7.543c1.677 1.619 1.755 4.33.174 6.042a4.313 4.313 0 0 1-3.179 1.387 4.309 4.309 0 0 1-2.919-1.133l-6.135-5.623A1.45 1.45 0 0 1 24.548 48l6.136 5.624c.577.529 1.478.49 2.009-.084a1.432 1.432 0 0 0-.058-1.99l-7.815-7.544a10.057 10.057 0 0 0-7.017-2.834h-5.337v8.563a10.508 10.508 0 0 1 7.796 3.789l3.62 4.353a7.618 7.618 0 0 0 5.872 2.754h15.14c.87 0 1.575-.707 1.575-1.574 0-.87-.706-1.575-1.574-1.575H39.27a1.45 1.45 0 0 1 0-2.9h5.625a4.478 4.478 0 0 1 4.473 4.475zm25.455-43.44v11.167c0 .8-.649 1.448-1.45 1.448H66.55a3.598 3.598 0 0 1-3.311-2.198H57.62a12.94 12.94 0 0 1-9.03-3.648l-7.816-7.543c-1.677-1.62-1.755-4.33-.174-6.043a4.331 4.331 0 0 1 6.098-.254l6.135 5.624a1.45 1.45 0 1 1-1.958 2.137l-6.136-5.624a1.426 1.426 0 0 0-2.009.084 1.432 1.432 0 0 0 .058 1.99l7.815 7.544a10.053 10.053 0 0 0 7.017 2.834h5.337v-8.563a10.506 10.506 0 0 1-7.796-3.789l-3.62-4.352a7.616 7.616 0 0 0-5.872-2.754H30.528c-.868 0-1.574.706-1.574 1.575 0 .867.706 1.573 1.574 1.573h6.191a1.45 1.45 0 0 1 0 2.9h-6.191a4.478 4.478 0 0 1-4.473-4.473A4.478 4.478 0 0 1 30.528.778h15.14c3.14 0 6.093 1.384 8.101 3.799l3.62 4.352a7.614 7.614 0 0 0 5.829 2.751 3.598 3.598 0 0 1 3.332-2.25h1.4a1.45 1.45 0 0 1 0 2.898h-1.4a.695.695 0 0 0-.694.694V24.64c0 .383.311.694.694.694h5.374v-9.716a1.45 1.45 0 0 1 2.899 0zm-28.149 36.38a1.444 1.444 0 0 1-.61.135 1.45 1.45 0 0 1-.579-2.78 1.447 1.447 0 0 1 1.916.726c.33.73.003 1.589-.727 1.918zm4.031-2.34a1.444 1.444 0 0 1-.873.294 1.449 1.449 0 0 1-.857-2.619 1.455 1.455 0 0 1 2.029.306 1.442 1.442 0 0 1-.299 2.019zm-8.472 3.766c-.01.001-.034.007-.043.009a1.45 1.45 0 0 1-.555-2.846 1.451 1.451 0 0 1 1.713 1.119 1.448 1.448 0 0 1-1.115 1.718zM54.14 46.53a1.45 1.45 0 0 1-2.186-1.906l.03-.033a1.449 1.449 0 0 1 2.156 1.939zm-.904-.812l-.175-.157.161.146zm5.453-7.285l-.006.02a1.45 1.45 0 1 1-2.77-.853 1.453 1.453 0 0 1 1.808-.97c.766.232 1.2 1.036.968 1.803zm-.282-7.602a1.45 1.45 0 0 1-1.679-1.153 1.449 1.449 0 1 1 2.85-.53 1.45 1.45 0 0 1-1.171 1.683zm1.159 3.026a1.45 1.45 0 1 1-2.889-.248 1.45 1.45 0 0 1 2.889.248zm-2.717 8.873l-1.261-.715 1.26.716a1.438 1.438 0 0 1-1.268.754c-.234 0-.473-.057-.694-.176a1.456 1.456 0 0 1-.58-1.972l.02-.036a1.45 1.45 0 0 1 2.523 1.428zM29.365 15.093a1.454 1.454 0 0 1-1.951-.645 1.444 1.444 0 0 1 .641-1.941l.013-.006a1.449 1.449 0 1 1 1.297 2.592zm3.774-1.403a1.448 1.448 0 0 1-1.762-1.043c-.2-.774.27-1.566 1.045-1.765l.034-.01a1.45 1.45 0 0 1 .683 2.818zm-7.176 3.584l-.019.016a1.448 1.448 0 0 1-2.037-.232 1.449 1.449 0 0 1 .231-2.036l.903 1.134-.898-1.138a1.452 1.452 0 0 1 2.037.221 1.448 1.448 0 0 1-.217 2.035zm-6.49 10.04a1.451 1.451 0 0 1-1.748 1.057 1.448 1.448 0 0 1-1.067-1.748l.014-.054a1.45 1.45 0 0 1 2.801.745zm-.58 4.01a1.45 1.45 0 0 1-1.449 1.397H17.4c-.8-.024-1.429-.69-1.405-1.49l.002-.057a1.45 1.45 0 0 1 2.895.15zm2-7.79a1.451 1.451 0 0 1-1.937.652 1.448 1.448 0 0 1-.66-1.938l.023-.047a1.45 1.45 0 0 1 2.574 1.333zm2.198-3.4a1.449 1.449 0 0 1-2.268-1.805l.03-.036a1.45 1.45 0 0 1 2.238 1.842zm-5.095 16.902a1.442 1.442 0 0 1-1.681-1.163l-.002-.015a1.45 1.45 0 0 1 2.853-.51 1.455 1.455 0 0 1-1.17 1.688zm31.423-5.962a6.685 6.685 0 0 1-1.977 4.766 1.222 1.222 0 0 1-.12.108l-8.611 6.859a1.45 1.45 0 0 1-1.803.002l-8.26-6.539-.029-.025a6.714 6.714 0 0 1-2.423-5.17c0-3.712 3.02-6.731 6.731-6.731 1.887 0 3.635.777 4.88 2.09a6.711 6.711 0 0 1 4.881-2.09 6.738 6.738 0 0 1 6.731 6.73zm-2.898 0a3.836 3.836 0 0 0-3.832-3.831c-1.556 0-2.946.929-3.542 2.367a1.45 1.45 0 0 1-2.678 0 3.822 3.822 0 0 0-3.542-2.367 3.836 3.836 0 0 0-3.832 3.831c0 1.135.498 2.204 1.368 2.935l7.342 5.813 7.642-6.087a3.805 3.805 0 0 0 1.074-2.66zM2.05 51.985a1.444 1.444 0 1 1 0 2.888 1.444 1.444 0 0 1 0-2.888zM73.373 9.433a1.445 1.445 0 1 1 0 2.89 1.445 1.445 0 0 1 0-2.89z"/></g></g></svg>