<svg xmlns="http://www.w3.org/2000/svg" width="20.75" height="23.812" viewBox="0 0 20.75 23.812">
  <path d="M17.76 15.011a2.348 2.348 0 0 0-1.59-.98 2.437 2.437 0 0 0-1.81.562l-1.77 1.376c-.12-.087-.25-.168-.36-.247-.17-.112-.33-.217-.47-.329a17.162 17.162 0 0 1-3.65-4.24 9.954 9.954 0 0 1-1.09-2.287c.45-.324.88-.666 1.3-1 .15-.118.31-.248.47-.369a2.291 2.291 0 0 0 .42-3.448L8.02 2.52c-.14-.173-.28-.351-.41-.53-.26-.347-.54-.7-.83-1.043A2.363 2.363 0 0 0 5.2.007a2.52 2.52 0 0 0-1.8.524c0 .006 0 .006-.01.01l-1.91 1.5A3.644 3.644 0 0 0 .11 4.222a8.8 8.8 0 0 0 .18 3.781 21.8 21.8 0 0 0 3.05 6.826 23.625 23.625 0 0 0 7.09 7.076 12.312 12.312 0 0 0 4.24 1.835c.11.015.22.034.32.046a3.815 3.815 0 0 0 3.04-.881.064.064 0 0 1 .02-.026 10.889 10.889 0 0 1 .99-.791c.24-.179.48-.365.73-.564a2.51 2.51 0 0 0 .96-1.634 2.368 2.368 0 0 0-.56-1.8zm1.15 5.47c-.01 0-.01 0 0 0-.22.183-.45.351-.69.533a12.769 12.769 0 0 0-1.08.877 2.446 2.446 0 0 1-1.98.565c-.08-.011-.16-.019-.23-.033a10.884 10.884 0 0 1-3.76-1.646 22.264 22.264 0 0 1-6.68-6.662 20.584 20.584 0 0 1-2.87-6.419 7.131 7.131 0 0 1-.17-3.189 2.269 2.269 0 0 1 .87-1.4l1.92-1.49a1.15 1.15 0 0 1 .8-.262 1.079 1.079 0 0 1 .69.44.165.165 0 0 1 .01.019c.27.318.53.649.79 1 .14.179.28.357.42.542l1.2 1.526a.959.959 0 0 1-.19 1.542c-.17.131-.32.259-.49.381-.47.374-.92.727-1.4 1.061-.01.009-.02.012-.03.02a1.024 1.024 0 0 0-.4 1.1c0 .018.01.032.01.047a11 11 0 0 0 1.29 2.821h.01a18.35 18.35 0 0 0 3.94 4.577 6.817 6.817 0 0 0 .58.407c.17.114.33.218.46.325a.533.533 0 0 0 .06.041 1.048 1.048 0 0 0 .48.187 1.081 1.081 0 0 0 .8-.251l1.92-1.5a1.173 1.173 0 0 1 .8-.285 1.061 1.061 0 0 1 .68.456l.01.008 2.42 3.086a1 1 0 0 1-.19 1.576z" fill="#fb9925" fill-rule="evenodd"/>
</svg>
